%TF.GenerationSoftware,KiCad,Pcbnew,(6.0.4)*%
%TF.CreationDate,2022-05-29T18:16:18+05:30*%
%TF.ProjectId,TOUCH ON AND OFF SWTICH CIRCUIT,544f5543-4820-44f4-9e20-414e44204f46,rev?*%
%TF.SameCoordinates,Original*%
%TF.FileFunction,Copper,L2,Bot*%
%TF.FilePolarity,Positive*%
%FSLAX46Y46*%
G04 Gerber Fmt 4.6, Leading zero omitted, Abs format (unit mm)*
G04 Created by KiCad (PCBNEW (6.0.4)) date 2022-05-29 18:16:18*
%MOMM*%
%LPD*%
G01*
G04 APERTURE LIST*
%TA.AperFunction,ComponentPad*%
%ADD10C,3.000000*%
%TD*%
%TA.AperFunction,ComponentPad*%
%ADD11C,2.500000*%
%TD*%
%TA.AperFunction,ComponentPad*%
%ADD12O,1.200000X1.600000*%
%TD*%
%TA.AperFunction,ComponentPad*%
%ADD13O,1.200000X1.200000*%
%TD*%
%TA.AperFunction,ComponentPad*%
%ADD14C,1.400000*%
%TD*%
%TA.AperFunction,ComponentPad*%
%ADD15O,1.400000X1.400000*%
%TD*%
%TA.AperFunction,ComponentPad*%
%ADD16R,1.800000X1.800000*%
%TD*%
%TA.AperFunction,ComponentPad*%
%ADD17C,1.800000*%
%TD*%
%TA.AperFunction,ComponentPad*%
%ADD18R,2.200000X2.200000*%
%TD*%
%TA.AperFunction,ComponentPad*%
%ADD19O,2.200000X2.200000*%
%TD*%
G04 APERTURE END LIST*
D10*
%TO.P,K1,1*%
%TO.N,Net-(K1-Pad1)*%
X59195000Y-21980000D03*
D11*
%TO.P,K1,2*%
%TO.N,Net-(D1-Pad2)*%
X53145000Y-23930000D03*
D10*
%TO.P,K1,4*%
%TO.N,N/C*%
X65195000Y-36180000D03*
D11*
%TO.P,K1,5*%
X65145000Y-23930000D03*
%TD*%
D12*
%TO.P,Q1,1,E*%
%TO.N,GND*%
X43955000Y-38100000D03*
D13*
%TO.P,Q1,2,B*%
%TO.N,Net-(Q1-Pad2)*%
X46495000Y-35560000D03*
%TO.P,Q1,3,C*%
%TO.N,Net-(D1-Pad2)*%
X43955000Y-33020000D03*
%TD*%
D14*
%TO.P,R3,1*%
%TO.N,Net-(R3-Pad1)*%
X31255000Y-48260000D03*
D15*
%TO.P,R3,2*%
%TO.N,GND*%
X36335000Y-48260000D03*
%TD*%
D14*
%TO.P,R1,1*%
%TO.N,VCC*%
X36335000Y-27940000D03*
D15*
%TO.P,R1,2*%
%TO.N,Net-(R1-Pad2)*%
X41415000Y-27940000D03*
%TD*%
D16*
%TO.P,L1,1,K*%
%TO.N,Net-(K1-Pad1)*%
X63500000Y-43180000D03*
D17*
%TO.P,L1,2,A*%
%TO.N,AC*%
X63500000Y-45720000D03*
%TD*%
D18*
%TO.P,D1,1,K*%
%TO.N,VCC*%
X38875000Y-22860000D03*
D19*
%TO.P,D1,2,A*%
%TO.N,Net-(D1-Pad2)*%
X49035000Y-22860000D03*
%TD*%
D14*
%TO.P,R2,1*%
%TO.N,Net-(R2-Pad1)*%
X53340000Y-48260000D03*
D15*
%TO.P,R2,2*%
%TO.N,Net-(Q1-Pad2)*%
X58420000Y-48260000D03*
%TD*%
%TA.AperFunction,Conductor*%
%TO.N,GND*%
G36*
X76142121Y-15260002D02*
G01*
X76188614Y-15313658D01*
X76200000Y-15366000D01*
X76200000Y-55754000D01*
X76179998Y-55822121D01*
X76126342Y-55868614D01*
X76074000Y-55880000D01*
X17906000Y-55880000D01*
X17837879Y-55859998D01*
X17791386Y-55806342D01*
X17780000Y-55754000D01*
X17780000Y-48260000D01*
X30041884Y-48260000D01*
X30060314Y-48470655D01*
X30061738Y-48475968D01*
X30061738Y-48475970D01*
X30076617Y-48531497D01*
X30115044Y-48674910D01*
X30204411Y-48866558D01*
X30325699Y-49039776D01*
X30475224Y-49189301D01*
X30648442Y-49310589D01*
X30653420Y-49312910D01*
X30653423Y-49312912D01*
X30835108Y-49397633D01*
X30840090Y-49399956D01*
X30845398Y-49401378D01*
X30845400Y-49401379D01*
X31039030Y-49453262D01*
X31039032Y-49453262D01*
X31044345Y-49454686D01*
X31255000Y-49473116D01*
X31465655Y-49454686D01*
X31470968Y-49453262D01*
X31470970Y-49453262D01*
X31664600Y-49401379D01*
X31664602Y-49401378D01*
X31669910Y-49399956D01*
X31674892Y-49397633D01*
X31856577Y-49312912D01*
X31856580Y-49312910D01*
X31861558Y-49310589D01*
X32034776Y-49189301D01*
X32184301Y-49039776D01*
X32305589Y-48866558D01*
X32394956Y-48674910D01*
X32433384Y-48531497D01*
X32434717Y-48526522D01*
X35155801Y-48526522D01*
X35194092Y-48669423D01*
X35197842Y-48679727D01*
X35282521Y-48861323D01*
X35287998Y-48870811D01*
X35402925Y-49034942D01*
X35409981Y-49043350D01*
X35551650Y-49185019D01*
X35560058Y-49192075D01*
X35724189Y-49307002D01*
X35733677Y-49312479D01*
X35915273Y-49397158D01*
X35925577Y-49400908D01*
X36063503Y-49437866D01*
X36077599Y-49437530D01*
X36081000Y-49429588D01*
X36081000Y-49424439D01*
X36589000Y-49424439D01*
X36592973Y-49437970D01*
X36601522Y-49439199D01*
X36744423Y-49400908D01*
X36754727Y-49397158D01*
X36936323Y-49312479D01*
X36945811Y-49307002D01*
X37109942Y-49192075D01*
X37118350Y-49185019D01*
X37260019Y-49043350D01*
X37267075Y-49034942D01*
X37382002Y-48870811D01*
X37387479Y-48861323D01*
X37472158Y-48679727D01*
X37475908Y-48669423D01*
X37512866Y-48531497D01*
X37512530Y-48517401D01*
X37504588Y-48514000D01*
X36607115Y-48514000D01*
X36591876Y-48518475D01*
X36590671Y-48519865D01*
X36589000Y-48527548D01*
X36589000Y-49424439D01*
X36081000Y-49424439D01*
X36081000Y-48532115D01*
X36076525Y-48516876D01*
X36075135Y-48515671D01*
X36067452Y-48514000D01*
X35170561Y-48514000D01*
X35157030Y-48517973D01*
X35155801Y-48526522D01*
X32434717Y-48526522D01*
X32448262Y-48475970D01*
X32448262Y-48475968D01*
X32449686Y-48470655D01*
X32468116Y-48260000D01*
X52126884Y-48260000D01*
X52145314Y-48470655D01*
X52146738Y-48475968D01*
X52146738Y-48475970D01*
X52161617Y-48531497D01*
X52200044Y-48674910D01*
X52289411Y-48866558D01*
X52410699Y-49039776D01*
X52560224Y-49189301D01*
X52733442Y-49310589D01*
X52738420Y-49312910D01*
X52738423Y-49312912D01*
X52920108Y-49397633D01*
X52925090Y-49399956D01*
X52930398Y-49401378D01*
X52930400Y-49401379D01*
X53124030Y-49453262D01*
X53124032Y-49453262D01*
X53129345Y-49454686D01*
X53340000Y-49473116D01*
X53550655Y-49454686D01*
X53555968Y-49453262D01*
X53555970Y-49453262D01*
X53749600Y-49401379D01*
X53749602Y-49401378D01*
X53754910Y-49399956D01*
X53759892Y-49397633D01*
X53941577Y-49312912D01*
X53941580Y-49312910D01*
X53946558Y-49310589D01*
X54119776Y-49189301D01*
X54269301Y-49039776D01*
X54390589Y-48866558D01*
X54479956Y-48674910D01*
X54518384Y-48531497D01*
X54533262Y-48475970D01*
X54533262Y-48475968D01*
X54534686Y-48470655D01*
X54553116Y-48260000D01*
X57206884Y-48260000D01*
X57225314Y-48470655D01*
X57226738Y-48475968D01*
X57226738Y-48475970D01*
X57241617Y-48531497D01*
X57280044Y-48674910D01*
X57369411Y-48866558D01*
X57490699Y-49039776D01*
X57640224Y-49189301D01*
X57813442Y-49310589D01*
X57818420Y-49312910D01*
X57818423Y-49312912D01*
X58000108Y-49397633D01*
X58005090Y-49399956D01*
X58010398Y-49401378D01*
X58010400Y-49401379D01*
X58204030Y-49453262D01*
X58204032Y-49453262D01*
X58209345Y-49454686D01*
X58420000Y-49473116D01*
X58630655Y-49454686D01*
X58635968Y-49453262D01*
X58635970Y-49453262D01*
X58829600Y-49401379D01*
X58829602Y-49401378D01*
X58834910Y-49399956D01*
X58839892Y-49397633D01*
X59021577Y-49312912D01*
X59021580Y-49312910D01*
X59026558Y-49310589D01*
X59199776Y-49189301D01*
X59349301Y-49039776D01*
X59470589Y-48866558D01*
X59559956Y-48674910D01*
X59598384Y-48531497D01*
X59613262Y-48475970D01*
X59613262Y-48475968D01*
X59614686Y-48470655D01*
X59633116Y-48260000D01*
X59614686Y-48049345D01*
X59602301Y-48003124D01*
X59561379Y-47850400D01*
X59561378Y-47850398D01*
X59559956Y-47845090D01*
X59470589Y-47653442D01*
X59349301Y-47480224D01*
X59199776Y-47330699D01*
X59026558Y-47209411D01*
X59021580Y-47207090D01*
X59021577Y-47207088D01*
X58839892Y-47122367D01*
X58839891Y-47122366D01*
X58834910Y-47120044D01*
X58829602Y-47118622D01*
X58829600Y-47118621D01*
X58635970Y-47066738D01*
X58635968Y-47066738D01*
X58630655Y-47065314D01*
X58420000Y-47046884D01*
X58209345Y-47065314D01*
X58204032Y-47066738D01*
X58204030Y-47066738D01*
X58010400Y-47118621D01*
X58010398Y-47118622D01*
X58005090Y-47120044D01*
X58000109Y-47122366D01*
X58000108Y-47122367D01*
X57818423Y-47207088D01*
X57818420Y-47207090D01*
X57813442Y-47209411D01*
X57640224Y-47330699D01*
X57490699Y-47480224D01*
X57369411Y-47653442D01*
X57280044Y-47845090D01*
X57278622Y-47850398D01*
X57278621Y-47850400D01*
X57237699Y-48003124D01*
X57225314Y-48049345D01*
X57206884Y-48260000D01*
X54553116Y-48260000D01*
X54534686Y-48049345D01*
X54522301Y-48003124D01*
X54481379Y-47850400D01*
X54481378Y-47850398D01*
X54479956Y-47845090D01*
X54390589Y-47653442D01*
X54269301Y-47480224D01*
X54119776Y-47330699D01*
X53946558Y-47209411D01*
X53941580Y-47207090D01*
X53941577Y-47207088D01*
X53759892Y-47122367D01*
X53759891Y-47122366D01*
X53754910Y-47120044D01*
X53749602Y-47118622D01*
X53749600Y-47118621D01*
X53555970Y-47066738D01*
X53555968Y-47066738D01*
X53550655Y-47065314D01*
X53340000Y-47046884D01*
X53129345Y-47065314D01*
X53124032Y-47066738D01*
X53124030Y-47066738D01*
X52930400Y-47118621D01*
X52930398Y-47118622D01*
X52925090Y-47120044D01*
X52920109Y-47122366D01*
X52920108Y-47122367D01*
X52738423Y-47207088D01*
X52738420Y-47207090D01*
X52733442Y-47209411D01*
X52560224Y-47330699D01*
X52410699Y-47480224D01*
X52289411Y-47653442D01*
X52200044Y-47845090D01*
X52198622Y-47850398D01*
X52198621Y-47850400D01*
X52157699Y-48003124D01*
X52145314Y-48049345D01*
X52126884Y-48260000D01*
X32468116Y-48260000D01*
X32449686Y-48049345D01*
X32437301Y-48003124D01*
X32433383Y-47988503D01*
X35157134Y-47988503D01*
X35157470Y-48002599D01*
X35165412Y-48006000D01*
X36062885Y-48006000D01*
X36078124Y-48001525D01*
X36079329Y-48000135D01*
X36081000Y-47992452D01*
X36081000Y-47987885D01*
X36589000Y-47987885D01*
X36593475Y-48003124D01*
X36594865Y-48004329D01*
X36602548Y-48006000D01*
X37499439Y-48006000D01*
X37512970Y-48002027D01*
X37514199Y-47993478D01*
X37475908Y-47850577D01*
X37472158Y-47840273D01*
X37387479Y-47658677D01*
X37382002Y-47649189D01*
X37267075Y-47485058D01*
X37260019Y-47476650D01*
X37118350Y-47334981D01*
X37109942Y-47327925D01*
X36945811Y-47212998D01*
X36936323Y-47207521D01*
X36754727Y-47122842D01*
X36744423Y-47119092D01*
X36606497Y-47082134D01*
X36592401Y-47082470D01*
X36589000Y-47090412D01*
X36589000Y-47987885D01*
X36081000Y-47987885D01*
X36081000Y-47095561D01*
X36077027Y-47082030D01*
X36068478Y-47080801D01*
X35925577Y-47119092D01*
X35915273Y-47122842D01*
X35733677Y-47207521D01*
X35724189Y-47212998D01*
X35560058Y-47327925D01*
X35551650Y-47334981D01*
X35409981Y-47476650D01*
X35402925Y-47485058D01*
X35287998Y-47649189D01*
X35282521Y-47658677D01*
X35197842Y-47840273D01*
X35194092Y-47850577D01*
X35157134Y-47988503D01*
X32433383Y-47988503D01*
X32396379Y-47850400D01*
X32396378Y-47850398D01*
X32394956Y-47845090D01*
X32305589Y-47653442D01*
X32184301Y-47480224D01*
X32034776Y-47330699D01*
X31861558Y-47209411D01*
X31856580Y-47207090D01*
X31856577Y-47207088D01*
X31674892Y-47122367D01*
X31674891Y-47122366D01*
X31669910Y-47120044D01*
X31664602Y-47118622D01*
X31664600Y-47118621D01*
X31470970Y-47066738D01*
X31470968Y-47066738D01*
X31465655Y-47065314D01*
X31255000Y-47046884D01*
X31044345Y-47065314D01*
X31039032Y-47066738D01*
X31039030Y-47066738D01*
X30845400Y-47118621D01*
X30845398Y-47118622D01*
X30840090Y-47120044D01*
X30835109Y-47122366D01*
X30835108Y-47122367D01*
X30653423Y-47207088D01*
X30653420Y-47207090D01*
X30648442Y-47209411D01*
X30475224Y-47330699D01*
X30325699Y-47480224D01*
X30204411Y-47653442D01*
X30115044Y-47845090D01*
X30113622Y-47850398D01*
X30113621Y-47850400D01*
X30072699Y-48003124D01*
X30060314Y-48049345D01*
X30041884Y-48260000D01*
X17780000Y-48260000D01*
X17780000Y-45685469D01*
X62087095Y-45685469D01*
X62087392Y-45690622D01*
X62087392Y-45690625D01*
X62093067Y-45789041D01*
X62100427Y-45916697D01*
X62101564Y-45921743D01*
X62101565Y-45921749D01*
X62133741Y-46064523D01*
X62151346Y-46142642D01*
X62153288Y-46147424D01*
X62153289Y-46147428D01*
X62236540Y-46352450D01*
X62238484Y-46357237D01*
X62359501Y-46554719D01*
X62511147Y-46729784D01*
X62689349Y-46877730D01*
X62889322Y-46994584D01*
X63105694Y-47077209D01*
X63110760Y-47078240D01*
X63110761Y-47078240D01*
X63163846Y-47089040D01*
X63332656Y-47123385D01*
X63463324Y-47128176D01*
X63558949Y-47131683D01*
X63558953Y-47131683D01*
X63564113Y-47131872D01*
X63569233Y-47131216D01*
X63569235Y-47131216D01*
X63663875Y-47119092D01*
X63793847Y-47102442D01*
X63798795Y-47100957D01*
X63798802Y-47100956D01*
X64010747Y-47037369D01*
X64015690Y-47035886D01*
X64096236Y-46996427D01*
X64219049Y-46936262D01*
X64219052Y-46936260D01*
X64223684Y-46933991D01*
X64412243Y-46799494D01*
X64576303Y-46636005D01*
X64711458Y-46447917D01*
X64758641Y-46352450D01*
X64811784Y-46244922D01*
X64811785Y-46244920D01*
X64814078Y-46240280D01*
X64881408Y-46018671D01*
X64911640Y-45789041D01*
X64913327Y-45720000D01*
X64907032Y-45643434D01*
X64894773Y-45494318D01*
X64894772Y-45494312D01*
X64894349Y-45489167D01*
X64837925Y-45264533D01*
X64835866Y-45259797D01*
X64747630Y-45056868D01*
X64747628Y-45056865D01*
X64745570Y-45052131D01*
X64619764Y-44857665D01*
X64529848Y-44758848D01*
X64498796Y-44695002D01*
X64507192Y-44624504D01*
X64552369Y-44569736D01*
X64578812Y-44556067D01*
X64638297Y-44533767D01*
X64646705Y-44530615D01*
X64763261Y-44443261D01*
X64850615Y-44326705D01*
X64901745Y-44190316D01*
X64908500Y-44128134D01*
X64908500Y-42231866D01*
X64901745Y-42169684D01*
X64850615Y-42033295D01*
X64763261Y-41916739D01*
X64646705Y-41829385D01*
X64510316Y-41778255D01*
X64448134Y-41771500D01*
X62551866Y-41771500D01*
X62489684Y-41778255D01*
X62353295Y-41829385D01*
X62236739Y-41916739D01*
X62149385Y-42033295D01*
X62098255Y-42169684D01*
X62091500Y-42231866D01*
X62091500Y-44128134D01*
X62098255Y-44190316D01*
X62149385Y-44326705D01*
X62236739Y-44443261D01*
X62353295Y-44530615D01*
X62361704Y-44533767D01*
X62361705Y-44533768D01*
X62421164Y-44556058D01*
X62477929Y-44598699D01*
X62502629Y-44665261D01*
X62487422Y-44734609D01*
X62468029Y-44761091D01*
X62401639Y-44830564D01*
X62398725Y-44834836D01*
X62398724Y-44834837D01*
X62383152Y-44857665D01*
X62271119Y-45021899D01*
X62173602Y-45231981D01*
X62111707Y-45455169D01*
X62087095Y-45685469D01*
X17780000Y-45685469D01*
X17780000Y-38370512D01*
X42848687Y-38370512D01*
X42861471Y-38504494D01*
X42863730Y-38516228D01*
X42919872Y-38707599D01*
X42924302Y-38718675D01*
X43015619Y-38895978D01*
X43022069Y-38906024D01*
X43145262Y-39062857D01*
X43153499Y-39071506D01*
X43304123Y-39202212D01*
X43313847Y-39209147D01*
X43486467Y-39309010D01*
X43497331Y-39313984D01*
X43685727Y-39379407D01*
X43686716Y-39379648D01*
X43697008Y-39378180D01*
X43701000Y-39364615D01*
X43701000Y-39360402D01*
X44209000Y-39360402D01*
X44212973Y-39373933D01*
X44222399Y-39375288D01*
X44311537Y-39353806D01*
X44322832Y-39349917D01*
X44504382Y-39267371D01*
X44514724Y-39261424D01*
X44677397Y-39146032D01*
X44686425Y-39138239D01*
X44824342Y-38994169D01*
X44831738Y-38984804D01*
X44939921Y-38817259D01*
X44945417Y-38806655D01*
X45019961Y-38621688D01*
X45023355Y-38610230D01*
X45061857Y-38413072D01*
X45062934Y-38404209D01*
X45063000Y-38401500D01*
X45063000Y-38372115D01*
X45058525Y-38356876D01*
X45057135Y-38355671D01*
X45049452Y-38354000D01*
X44227115Y-38354000D01*
X44211876Y-38358475D01*
X44210671Y-38359865D01*
X44209000Y-38367548D01*
X44209000Y-39360402D01*
X43701000Y-39360402D01*
X43701000Y-38372115D01*
X43696525Y-38356876D01*
X43695135Y-38355671D01*
X43687452Y-38354000D01*
X42865227Y-38354000D01*
X42850750Y-38358251D01*
X42848687Y-38370512D01*
X17780000Y-38370512D01*
X17780000Y-37827885D01*
X42847000Y-37827885D01*
X42851475Y-37843124D01*
X42852865Y-37844329D01*
X42860548Y-37846000D01*
X43682885Y-37846000D01*
X43698124Y-37841525D01*
X43699329Y-37840135D01*
X43701000Y-37832452D01*
X43701000Y-37827885D01*
X44209000Y-37827885D01*
X44213475Y-37843124D01*
X44214865Y-37844329D01*
X44222548Y-37846000D01*
X45044773Y-37846000D01*
X45059250Y-37841749D01*
X45061313Y-37829488D01*
X45048529Y-37695506D01*
X45046270Y-37683772D01*
X44990128Y-37492401D01*
X44985698Y-37481325D01*
X44894381Y-37304022D01*
X44887931Y-37293976D01*
X44764738Y-37137143D01*
X44756501Y-37128494D01*
X44605877Y-36997788D01*
X44596153Y-36990853D01*
X44423533Y-36890990D01*
X44412669Y-36886016D01*
X44224273Y-36820593D01*
X44223284Y-36820352D01*
X44212992Y-36821820D01*
X44209000Y-36835385D01*
X44209000Y-37827885D01*
X43701000Y-37827885D01*
X43701000Y-36839598D01*
X43697027Y-36826067D01*
X43687601Y-36824712D01*
X43598463Y-36846194D01*
X43587168Y-36850083D01*
X43405618Y-36932629D01*
X43395276Y-36938576D01*
X43232603Y-37053968D01*
X43223575Y-37061761D01*
X43085658Y-37205831D01*
X43078262Y-37215196D01*
X42970079Y-37382741D01*
X42964583Y-37393345D01*
X42890039Y-37578312D01*
X42886645Y-37589770D01*
X42848143Y-37786928D01*
X42847066Y-37795791D01*
X42847000Y-37798500D01*
X42847000Y-37827885D01*
X17780000Y-37827885D01*
X17780000Y-35530859D01*
X45382132Y-35530859D01*
X45395457Y-35734151D01*
X45445605Y-35931610D01*
X45530898Y-36116624D01*
X45648479Y-36282997D01*
X45794410Y-36425157D01*
X45799206Y-36428362D01*
X45799209Y-36428364D01*
X45805130Y-36432320D01*
X45963803Y-36538342D01*
X45969106Y-36540620D01*
X45969109Y-36540622D01*
X46058115Y-36578862D01*
X46150987Y-36618763D01*
X46223817Y-36635243D01*
X46344055Y-36662450D01*
X46344060Y-36662451D01*
X46349692Y-36663725D01*
X46355463Y-36663952D01*
X46355465Y-36663952D01*
X46418470Y-36666427D01*
X46553263Y-36671723D01*
X46754883Y-36642490D01*
X46760347Y-36640635D01*
X46760352Y-36640634D01*
X46942327Y-36578862D01*
X46942332Y-36578860D01*
X46947799Y-36577004D01*
X47125551Y-36477458D01*
X47282186Y-36347186D01*
X47412458Y-36190551D01*
X47430173Y-36158918D01*
X63181917Y-36158918D01*
X63197682Y-36432320D01*
X63198507Y-36436525D01*
X63198508Y-36436533D01*
X63218930Y-36540622D01*
X63250405Y-36701053D01*
X63251792Y-36705103D01*
X63251793Y-36705108D01*
X63337723Y-36956088D01*
X63339112Y-36960144D01*
X63462160Y-37204799D01*
X63464586Y-37208328D01*
X63464589Y-37208334D01*
X63523450Y-37293976D01*
X63617274Y-37430490D01*
X63801582Y-37633043D01*
X63804877Y-37635798D01*
X63804878Y-37635799D01*
X63876287Y-37695506D01*
X64011675Y-37808707D01*
X64015316Y-37810991D01*
X64240024Y-37951951D01*
X64240028Y-37951953D01*
X64243664Y-37954234D01*
X64311544Y-37984883D01*
X64489345Y-38065164D01*
X64489349Y-38065166D01*
X64493257Y-38066930D01*
X64497377Y-38068150D01*
X64497376Y-38068150D01*
X64751723Y-38143491D01*
X64751727Y-38143492D01*
X64755836Y-38144709D01*
X64760070Y-38145357D01*
X64760075Y-38145358D01*
X65022298Y-38185483D01*
X65022300Y-38185483D01*
X65026540Y-38186132D01*
X65165912Y-38188322D01*
X65296071Y-38190367D01*
X65296077Y-38190367D01*
X65300362Y-38190434D01*
X65572235Y-38157534D01*
X65837127Y-38088041D01*
X65841087Y-38086401D01*
X65841092Y-38086399D01*
X65963631Y-38035641D01*
X66090136Y-37983241D01*
X66326582Y-37845073D01*
X66542089Y-37676094D01*
X66583809Y-37633043D01*
X66729686Y-37482509D01*
X66732669Y-37479431D01*
X66735202Y-37475983D01*
X66735206Y-37475978D01*
X66892257Y-37262178D01*
X66894795Y-37258723D01*
X66923513Y-37205831D01*
X67023418Y-37021830D01*
X67023419Y-37021828D01*
X67025468Y-37018054D01*
X67098526Y-36824712D01*
X67120751Y-36765895D01*
X67120752Y-36765891D01*
X67122269Y-36761877D01*
X67147107Y-36653427D01*
X67182449Y-36499117D01*
X67182450Y-36499113D01*
X67183407Y-36494933D01*
X67184715Y-36480284D01*
X67207531Y-36224627D01*
X67207531Y-36224625D01*
X67207751Y-36222161D01*
X67208193Y-36180000D01*
X67203515Y-36111379D01*
X67189859Y-35911055D01*
X67189858Y-35911049D01*
X67189567Y-35906778D01*
X67134032Y-35638612D01*
X67042617Y-35380465D01*
X66917013Y-35137112D01*
X66907040Y-35122921D01*
X66762008Y-34916562D01*
X66759545Y-34913057D01*
X66672806Y-34819715D01*
X66576046Y-34715588D01*
X66576043Y-34715585D01*
X66573125Y-34712445D01*
X66569810Y-34709731D01*
X66569806Y-34709728D01*
X66364523Y-34541706D01*
X66361205Y-34538990D01*
X66127704Y-34395901D01*
X66123768Y-34394173D01*
X65880873Y-34287549D01*
X65880869Y-34287548D01*
X65876945Y-34285825D01*
X65613566Y-34210800D01*
X65609324Y-34210196D01*
X65609318Y-34210195D01*
X65408834Y-34181662D01*
X65342443Y-34172213D01*
X65198589Y-34171460D01*
X65072877Y-34170802D01*
X65072871Y-34170802D01*
X65068591Y-34170780D01*
X65064347Y-34171339D01*
X65064343Y-34171339D01*
X64945302Y-34187011D01*
X64797078Y-34206525D01*
X64792938Y-34207658D01*
X64792936Y-34207658D01*
X64720008Y-34227609D01*
X64532928Y-34278788D01*
X64528980Y-34280472D01*
X64284982Y-34384546D01*
X64284978Y-34384548D01*
X64281030Y-34386232D01*
X64261125Y-34398145D01*
X64049725Y-34524664D01*
X64049721Y-34524667D01*
X64046043Y-34526868D01*
X63832318Y-34698094D01*
X63643808Y-34896742D01*
X63484002Y-35119136D01*
X63355857Y-35361161D01*
X63354385Y-35365184D01*
X63354383Y-35365188D01*
X63281736Y-35563704D01*
X63261743Y-35618337D01*
X63203404Y-35885907D01*
X63203068Y-35890177D01*
X63184875Y-36121340D01*
X63181917Y-36158918D01*
X47430173Y-36158918D01*
X47512004Y-36012799D01*
X47513860Y-36007332D01*
X47513862Y-36007327D01*
X47575634Y-35825352D01*
X47575635Y-35825347D01*
X47577490Y-35819883D01*
X47606723Y-35618263D01*
X47608249Y-35560000D01*
X47592124Y-35384506D01*
X47590137Y-35362880D01*
X47590136Y-35362877D01*
X47589608Y-35357126D01*
X47534307Y-35161047D01*
X47523680Y-35139496D01*
X47446756Y-34983510D01*
X47444201Y-34978329D01*
X47425796Y-34953681D01*
X47325758Y-34819715D01*
X47325758Y-34819714D01*
X47322305Y-34815091D01*
X47214664Y-34715588D01*
X47176943Y-34680719D01*
X47176940Y-34680717D01*
X47172703Y-34676800D01*
X47126675Y-34647759D01*
X47005288Y-34571169D01*
X47005283Y-34571167D01*
X47000404Y-34568088D01*
X46811180Y-34492595D01*
X46611366Y-34452849D01*
X46605592Y-34452773D01*
X46605588Y-34452773D01*
X46502452Y-34451424D01*
X46407655Y-34450183D01*
X46401958Y-34451162D01*
X46401957Y-34451162D01*
X46212567Y-34483705D01*
X46206870Y-34484684D01*
X46015734Y-34555198D01*
X45840649Y-34659363D01*
X45687478Y-34793690D01*
X45683911Y-34798215D01*
X45683906Y-34798220D01*
X45608689Y-34893633D01*
X45561351Y-34953681D01*
X45466492Y-35133978D01*
X45406078Y-35328543D01*
X45382132Y-35530859D01*
X17780000Y-35530859D01*
X17780000Y-32990859D01*
X42842132Y-32990859D01*
X42855457Y-33194151D01*
X42905605Y-33391610D01*
X42990898Y-33576624D01*
X43108479Y-33742997D01*
X43254410Y-33885157D01*
X43259206Y-33888362D01*
X43259209Y-33888364D01*
X43327149Y-33933760D01*
X43423803Y-33998342D01*
X43429106Y-34000620D01*
X43429109Y-34000622D01*
X43518115Y-34038862D01*
X43610987Y-34078763D01*
X43683817Y-34095243D01*
X43804055Y-34122450D01*
X43804060Y-34122451D01*
X43809692Y-34123725D01*
X43815463Y-34123952D01*
X43815465Y-34123952D01*
X43878470Y-34126427D01*
X44013263Y-34131723D01*
X44214883Y-34102490D01*
X44220347Y-34100635D01*
X44220352Y-34100634D01*
X44402327Y-34038862D01*
X44402332Y-34038860D01*
X44407799Y-34037004D01*
X44585551Y-33937458D01*
X44742186Y-33807186D01*
X44872458Y-33650551D01*
X44972004Y-33472799D01*
X44973860Y-33467332D01*
X44973862Y-33467327D01*
X45035634Y-33285352D01*
X45035635Y-33285347D01*
X45037490Y-33279883D01*
X45066723Y-33078263D01*
X45068249Y-33020000D01*
X45049608Y-32817126D01*
X44994307Y-32621047D01*
X44983680Y-32599496D01*
X44906756Y-32443510D01*
X44904201Y-32438329D01*
X44885796Y-32413681D01*
X44785758Y-32279715D01*
X44785758Y-32279714D01*
X44782305Y-32275091D01*
X44632703Y-32136800D01*
X44586675Y-32107759D01*
X44465288Y-32031169D01*
X44465283Y-32031167D01*
X44460404Y-32028088D01*
X44271180Y-31952595D01*
X44071366Y-31912849D01*
X44065592Y-31912773D01*
X44065588Y-31912773D01*
X43962452Y-31911424D01*
X43867655Y-31910183D01*
X43861958Y-31911162D01*
X43861957Y-31911162D01*
X43672567Y-31943705D01*
X43666870Y-31944684D01*
X43475734Y-32015198D01*
X43300649Y-32119363D01*
X43147478Y-32253690D01*
X43143911Y-32258215D01*
X43143906Y-32258220D01*
X43057331Y-32368040D01*
X43021351Y-32413681D01*
X42926492Y-32593978D01*
X42866078Y-32788543D01*
X42842132Y-32990859D01*
X17780000Y-32990859D01*
X17780000Y-27940000D01*
X35121884Y-27940000D01*
X35140314Y-28150655D01*
X35195044Y-28354910D01*
X35284411Y-28546558D01*
X35405699Y-28719776D01*
X35555224Y-28869301D01*
X35728442Y-28990589D01*
X35733420Y-28992910D01*
X35733423Y-28992912D01*
X35915108Y-29077633D01*
X35920090Y-29079956D01*
X35925398Y-29081378D01*
X35925400Y-29081379D01*
X36119030Y-29133262D01*
X36119032Y-29133262D01*
X36124345Y-29134686D01*
X36335000Y-29153116D01*
X36545655Y-29134686D01*
X36550968Y-29133262D01*
X36550970Y-29133262D01*
X36744600Y-29081379D01*
X36744602Y-29081378D01*
X36749910Y-29079956D01*
X36754892Y-29077633D01*
X36936577Y-28992912D01*
X36936580Y-28992910D01*
X36941558Y-28990589D01*
X37114776Y-28869301D01*
X37264301Y-28719776D01*
X37385589Y-28546558D01*
X37474956Y-28354910D01*
X37529686Y-28150655D01*
X37548116Y-27940000D01*
X40201884Y-27940000D01*
X40220314Y-28150655D01*
X40275044Y-28354910D01*
X40364411Y-28546558D01*
X40485699Y-28719776D01*
X40635224Y-28869301D01*
X40808442Y-28990589D01*
X40813420Y-28992910D01*
X40813423Y-28992912D01*
X40995108Y-29077633D01*
X41000090Y-29079956D01*
X41005398Y-29081378D01*
X41005400Y-29081379D01*
X41199030Y-29133262D01*
X41199032Y-29133262D01*
X41204345Y-29134686D01*
X41415000Y-29153116D01*
X41625655Y-29134686D01*
X41630968Y-29133262D01*
X41630970Y-29133262D01*
X41824600Y-29081379D01*
X41824602Y-29081378D01*
X41829910Y-29079956D01*
X41834892Y-29077633D01*
X42016577Y-28992912D01*
X42016580Y-28992910D01*
X42021558Y-28990589D01*
X42194776Y-28869301D01*
X42344301Y-28719776D01*
X42465589Y-28546558D01*
X42554956Y-28354910D01*
X42609686Y-28150655D01*
X42628116Y-27940000D01*
X42609686Y-27729345D01*
X42554956Y-27525090D01*
X42465589Y-27333442D01*
X42344301Y-27160224D01*
X42194776Y-27010699D01*
X42021558Y-26889411D01*
X42016580Y-26887090D01*
X42016577Y-26887088D01*
X41834892Y-26802367D01*
X41834891Y-26802366D01*
X41829910Y-26800044D01*
X41824602Y-26798622D01*
X41824600Y-26798621D01*
X41630970Y-26746738D01*
X41630968Y-26746738D01*
X41625655Y-26745314D01*
X41415000Y-26726884D01*
X41204345Y-26745314D01*
X41199032Y-26746738D01*
X41199030Y-26746738D01*
X41005400Y-26798621D01*
X41005398Y-26798622D01*
X41000090Y-26800044D01*
X40995109Y-26802366D01*
X40995108Y-26802367D01*
X40813423Y-26887088D01*
X40813420Y-26887090D01*
X40808442Y-26889411D01*
X40635224Y-27010699D01*
X40485699Y-27160224D01*
X40364411Y-27333442D01*
X40275044Y-27525090D01*
X40220314Y-27729345D01*
X40201884Y-27940000D01*
X37548116Y-27940000D01*
X37529686Y-27729345D01*
X37474956Y-27525090D01*
X37385589Y-27333442D01*
X37264301Y-27160224D01*
X37114776Y-27010699D01*
X36941558Y-26889411D01*
X36936580Y-26887090D01*
X36936577Y-26887088D01*
X36754892Y-26802367D01*
X36754891Y-26802366D01*
X36749910Y-26800044D01*
X36744602Y-26798622D01*
X36744600Y-26798621D01*
X36550970Y-26746738D01*
X36550968Y-26746738D01*
X36545655Y-26745314D01*
X36335000Y-26726884D01*
X36124345Y-26745314D01*
X36119032Y-26746738D01*
X36119030Y-26746738D01*
X35925400Y-26798621D01*
X35925398Y-26798622D01*
X35920090Y-26800044D01*
X35915109Y-26802366D01*
X35915108Y-26802367D01*
X35733423Y-26887088D01*
X35733420Y-26887090D01*
X35728442Y-26889411D01*
X35555224Y-27010699D01*
X35405699Y-27160224D01*
X35284411Y-27333442D01*
X35195044Y-27525090D01*
X35140314Y-27729345D01*
X35121884Y-27940000D01*
X17780000Y-27940000D01*
X17780000Y-24008134D01*
X37266500Y-24008134D01*
X37273255Y-24070316D01*
X37324385Y-24206705D01*
X37411739Y-24323261D01*
X37528295Y-24410615D01*
X37664684Y-24461745D01*
X37726866Y-24468500D01*
X40023134Y-24468500D01*
X40085316Y-24461745D01*
X40221705Y-24410615D01*
X40338261Y-24323261D01*
X40425615Y-24206705D01*
X40476745Y-24070316D01*
X40483500Y-24008134D01*
X40483500Y-22860000D01*
X47421526Y-22860000D01*
X47441391Y-23112403D01*
X47442545Y-23117210D01*
X47442546Y-23117216D01*
X47455416Y-23170823D01*
X47500495Y-23358591D01*
X47502388Y-23363162D01*
X47502389Y-23363164D01*
X47532476Y-23435799D01*
X47597384Y-23592502D01*
X47729672Y-23808376D01*
X47894102Y-24000898D01*
X48086624Y-24165328D01*
X48302498Y-24297616D01*
X48307068Y-24299509D01*
X48307072Y-24299511D01*
X48377401Y-24328642D01*
X48536409Y-24394505D01*
X48582836Y-24405651D01*
X48777784Y-24452454D01*
X48777790Y-24452455D01*
X48782597Y-24453609D01*
X49035000Y-24473474D01*
X49287403Y-24453609D01*
X49292210Y-24452455D01*
X49292216Y-24452454D01*
X49487164Y-24405651D01*
X49533591Y-24394505D01*
X49692599Y-24328642D01*
X49762928Y-24299511D01*
X49762932Y-24299509D01*
X49767502Y-24297616D01*
X49983376Y-24165328D01*
X50175898Y-24000898D01*
X50275876Y-23883839D01*
X51382173Y-23883839D01*
X51382397Y-23888505D01*
X51382397Y-23888511D01*
X51387055Y-23985483D01*
X51394713Y-24144908D01*
X51445704Y-24401256D01*
X51534026Y-24647252D01*
X51536242Y-24651376D01*
X51600753Y-24771437D01*
X51657737Y-24877491D01*
X51660532Y-24881234D01*
X51660534Y-24881237D01*
X51811330Y-25083177D01*
X51811335Y-25083183D01*
X51814122Y-25086915D01*
X51817431Y-25090195D01*
X51817436Y-25090201D01*
X51996426Y-25267635D01*
X51999743Y-25270923D01*
X52003505Y-25273681D01*
X52003508Y-25273684D01*
X52206750Y-25422707D01*
X52210524Y-25425474D01*
X52214667Y-25427654D01*
X52214669Y-25427655D01*
X52437684Y-25544989D01*
X52437689Y-25544991D01*
X52441834Y-25547172D01*
X52688590Y-25633344D01*
X52693183Y-25634216D01*
X52940785Y-25681224D01*
X52940788Y-25681224D01*
X52945374Y-25682095D01*
X53075958Y-25687226D01*
X53201875Y-25692174D01*
X53201881Y-25692174D01*
X53206543Y-25692357D01*
X53285977Y-25683657D01*
X53461707Y-25664412D01*
X53461712Y-25664411D01*
X53466360Y-25663902D01*
X53579116Y-25634216D01*
X53714594Y-25598548D01*
X53714596Y-25598547D01*
X53719117Y-25597357D01*
X53959262Y-25494182D01*
X54181519Y-25356646D01*
X54185082Y-25353629D01*
X54185087Y-25353626D01*
X54377439Y-25190787D01*
X54377440Y-25190786D01*
X54381005Y-25187768D01*
X54472729Y-25083177D01*
X54550257Y-24994774D01*
X54550261Y-24994769D01*
X54553339Y-24991259D01*
X54694733Y-24771437D01*
X54802083Y-24533129D01*
X54820310Y-24468500D01*
X54871760Y-24286076D01*
X54871761Y-24286073D01*
X54873030Y-24281572D01*
X54889832Y-24149496D01*
X54905616Y-24025421D01*
X54905616Y-24025417D01*
X54906014Y-24022291D01*
X54908431Y-23930000D01*
X54897364Y-23781077D01*
X54889407Y-23674000D01*
X54889406Y-23673996D01*
X54889061Y-23669348D01*
X54883569Y-23645073D01*
X54832408Y-23418980D01*
X54831377Y-23414423D01*
X54777539Y-23275978D01*
X54738340Y-23175176D01*
X54738339Y-23175173D01*
X54736647Y-23170823D01*
X54606951Y-22943902D01*
X54445138Y-22738643D01*
X54254763Y-22559557D01*
X54040009Y-22410576D01*
X54035816Y-22408508D01*
X53809781Y-22297040D01*
X53809778Y-22297039D01*
X53805593Y-22294975D01*
X53792104Y-22290657D01*
X53561123Y-22216720D01*
X53556665Y-22215293D01*
X53298693Y-22173279D01*
X53184942Y-22171790D01*
X53042022Y-22169919D01*
X53042019Y-22169919D01*
X53037345Y-22169858D01*
X52778362Y-22205104D01*
X52527433Y-22278243D01*
X52523180Y-22280203D01*
X52523179Y-22280204D01*
X52486659Y-22297040D01*
X52290072Y-22387668D01*
X52251067Y-22413241D01*
X52075404Y-22528410D01*
X52075399Y-22528414D01*
X52071491Y-22530976D01*
X51876494Y-22705018D01*
X51709363Y-22905970D01*
X51706934Y-22909973D01*
X51584097Y-23112403D01*
X51573771Y-23129419D01*
X51472697Y-23370455D01*
X51408359Y-23623783D01*
X51382173Y-23883839D01*
X50275876Y-23883839D01*
X50340328Y-23808376D01*
X50472616Y-23592502D01*
X50537525Y-23435799D01*
X50567611Y-23363164D01*
X50567612Y-23363162D01*
X50569505Y-23358591D01*
X50614584Y-23170823D01*
X50627454Y-23117216D01*
X50627455Y-23117210D01*
X50628609Y-23112403D01*
X50648474Y-22860000D01*
X50628609Y-22607597D01*
X50618598Y-22565895D01*
X50570660Y-22366221D01*
X50569505Y-22361409D01*
X50516035Y-22232320D01*
X50474511Y-22132072D01*
X50474509Y-22132068D01*
X50472616Y-22127498D01*
X50369310Y-21958918D01*
X57181917Y-21958918D01*
X57197682Y-22232320D01*
X57198507Y-22236525D01*
X57198508Y-22236533D01*
X57207076Y-22280204D01*
X57250405Y-22501053D01*
X57251792Y-22505103D01*
X57251793Y-22505108D01*
X57333006Y-22742311D01*
X57339112Y-22760144D01*
X57462160Y-23004799D01*
X57464586Y-23008328D01*
X57464589Y-23008334D01*
X57614843Y-23226953D01*
X57617274Y-23230490D01*
X57801582Y-23433043D01*
X58011675Y-23608707D01*
X58015316Y-23610991D01*
X58240024Y-23751951D01*
X58240028Y-23751953D01*
X58243664Y-23754234D01*
X58311544Y-23784883D01*
X58489345Y-23865164D01*
X58489349Y-23865166D01*
X58493257Y-23866930D01*
X58550341Y-23883839D01*
X58751723Y-23943491D01*
X58751727Y-23943492D01*
X58755836Y-23944709D01*
X58760070Y-23945357D01*
X58760075Y-23945358D01*
X59022298Y-23985483D01*
X59022300Y-23985483D01*
X59026540Y-23986132D01*
X59165912Y-23988322D01*
X59296071Y-23990367D01*
X59296077Y-23990367D01*
X59300362Y-23990434D01*
X59572235Y-23957534D01*
X59837127Y-23888041D01*
X59841087Y-23886401D01*
X59841092Y-23886399D01*
X59847272Y-23883839D01*
X63382173Y-23883839D01*
X63382397Y-23888505D01*
X63382397Y-23888511D01*
X63387055Y-23985483D01*
X63394713Y-24144908D01*
X63445704Y-24401256D01*
X63534026Y-24647252D01*
X63536242Y-24651376D01*
X63600753Y-24771437D01*
X63657737Y-24877491D01*
X63660532Y-24881234D01*
X63660534Y-24881237D01*
X63811330Y-25083177D01*
X63811335Y-25083183D01*
X63814122Y-25086915D01*
X63817431Y-25090195D01*
X63817436Y-25090201D01*
X63996426Y-25267635D01*
X63999743Y-25270923D01*
X64003505Y-25273681D01*
X64003508Y-25273684D01*
X64206750Y-25422707D01*
X64210524Y-25425474D01*
X64214667Y-25427654D01*
X64214669Y-25427655D01*
X64437684Y-25544989D01*
X64437689Y-25544991D01*
X64441834Y-25547172D01*
X64688590Y-25633344D01*
X64693183Y-25634216D01*
X64940785Y-25681224D01*
X64940788Y-25681224D01*
X64945374Y-25682095D01*
X65075958Y-25687226D01*
X65201875Y-25692174D01*
X65201881Y-25692174D01*
X65206543Y-25692357D01*
X65285977Y-25683657D01*
X65461707Y-25664412D01*
X65461712Y-25664411D01*
X65466360Y-25663902D01*
X65579116Y-25634216D01*
X65714594Y-25598548D01*
X65714596Y-25598547D01*
X65719117Y-25597357D01*
X65959262Y-25494182D01*
X66181519Y-25356646D01*
X66185082Y-25353629D01*
X66185087Y-25353626D01*
X66377439Y-25190787D01*
X66377440Y-25190786D01*
X66381005Y-25187768D01*
X66472729Y-25083177D01*
X66550257Y-24994774D01*
X66550261Y-24994769D01*
X66553339Y-24991259D01*
X66694733Y-24771437D01*
X66802083Y-24533129D01*
X66820310Y-24468500D01*
X66871760Y-24286076D01*
X66871761Y-24286073D01*
X66873030Y-24281572D01*
X66889832Y-24149496D01*
X66905616Y-24025421D01*
X66905616Y-24025417D01*
X66906014Y-24022291D01*
X66908431Y-23930000D01*
X66897364Y-23781077D01*
X66889407Y-23674000D01*
X66889406Y-23673996D01*
X66889061Y-23669348D01*
X66883569Y-23645073D01*
X66832408Y-23418980D01*
X66831377Y-23414423D01*
X66777539Y-23275978D01*
X66738340Y-23175176D01*
X66738339Y-23175173D01*
X66736647Y-23170823D01*
X66606951Y-22943902D01*
X66445138Y-22738643D01*
X66254763Y-22559557D01*
X66040009Y-22410576D01*
X66035816Y-22408508D01*
X65809781Y-22297040D01*
X65809778Y-22297039D01*
X65805593Y-22294975D01*
X65792104Y-22290657D01*
X65561123Y-22216720D01*
X65556665Y-22215293D01*
X65298693Y-22173279D01*
X65184942Y-22171790D01*
X65042022Y-22169919D01*
X65042019Y-22169919D01*
X65037345Y-22169858D01*
X64778362Y-22205104D01*
X64527433Y-22278243D01*
X64523180Y-22280203D01*
X64523179Y-22280204D01*
X64486659Y-22297040D01*
X64290072Y-22387668D01*
X64251067Y-22413241D01*
X64075404Y-22528410D01*
X64075399Y-22528414D01*
X64071491Y-22530976D01*
X63876494Y-22705018D01*
X63709363Y-22905970D01*
X63706934Y-22909973D01*
X63584097Y-23112403D01*
X63573771Y-23129419D01*
X63472697Y-23370455D01*
X63408359Y-23623783D01*
X63382173Y-23883839D01*
X59847272Y-23883839D01*
X59963632Y-23835641D01*
X60090136Y-23783241D01*
X60208359Y-23714157D01*
X60322879Y-23647237D01*
X60322880Y-23647236D01*
X60326582Y-23645073D01*
X60542089Y-23476094D01*
X60583809Y-23433043D01*
X60729686Y-23282509D01*
X60732669Y-23279431D01*
X60735202Y-23275983D01*
X60735206Y-23275978D01*
X60892257Y-23062178D01*
X60894795Y-23058723D01*
X60922154Y-23008334D01*
X61023418Y-22821830D01*
X61023419Y-22821828D01*
X61025468Y-22818054D01*
X61073868Y-22689966D01*
X61120751Y-22565895D01*
X61120752Y-22565891D01*
X61122269Y-22561877D01*
X61168182Y-22361409D01*
X61182449Y-22299117D01*
X61182450Y-22299113D01*
X61183407Y-22294933D01*
X61190388Y-22216720D01*
X61207531Y-22024627D01*
X61207531Y-22024625D01*
X61207751Y-22022161D01*
X61208193Y-21980000D01*
X61203532Y-21911624D01*
X61189859Y-21711055D01*
X61189858Y-21711049D01*
X61189567Y-21706778D01*
X61134032Y-21438612D01*
X61042617Y-21180465D01*
X60917013Y-20937112D01*
X60907040Y-20922921D01*
X60762008Y-20716562D01*
X60759545Y-20713057D01*
X60573125Y-20512445D01*
X60569810Y-20509731D01*
X60569806Y-20509728D01*
X60364523Y-20341706D01*
X60361205Y-20338990D01*
X60127704Y-20195901D01*
X60123768Y-20194173D01*
X59880873Y-20087549D01*
X59880869Y-20087548D01*
X59876945Y-20085825D01*
X59613566Y-20010800D01*
X59609324Y-20010196D01*
X59609318Y-20010195D01*
X59408834Y-19981662D01*
X59342443Y-19972213D01*
X59198589Y-19971460D01*
X59072877Y-19970802D01*
X59072871Y-19970802D01*
X59068591Y-19970780D01*
X59064347Y-19971339D01*
X59064343Y-19971339D01*
X58945302Y-19987011D01*
X58797078Y-20006525D01*
X58792938Y-20007658D01*
X58792936Y-20007658D01*
X58720008Y-20027609D01*
X58532928Y-20078788D01*
X58528980Y-20080472D01*
X58284982Y-20184546D01*
X58284978Y-20184548D01*
X58281030Y-20186232D01*
X58261125Y-20198145D01*
X58049725Y-20324664D01*
X58049721Y-20324667D01*
X58046043Y-20326868D01*
X57832318Y-20498094D01*
X57643808Y-20696742D01*
X57484002Y-20919136D01*
X57355857Y-21161161D01*
X57354385Y-21165184D01*
X57354383Y-21165188D01*
X57271616Y-21391358D01*
X57261743Y-21418337D01*
X57203404Y-21685907D01*
X57181917Y-21958918D01*
X50369310Y-21958918D01*
X50340328Y-21911624D01*
X50175898Y-21719102D01*
X49983376Y-21554672D01*
X49767502Y-21422384D01*
X49762932Y-21420491D01*
X49762928Y-21420489D01*
X49538164Y-21327389D01*
X49538162Y-21327388D01*
X49533591Y-21325495D01*
X49448968Y-21305179D01*
X49292216Y-21267546D01*
X49292210Y-21267545D01*
X49287403Y-21266391D01*
X49035000Y-21246526D01*
X48782597Y-21266391D01*
X48777790Y-21267545D01*
X48777784Y-21267546D01*
X48621032Y-21305179D01*
X48536409Y-21325495D01*
X48531838Y-21327388D01*
X48531836Y-21327389D01*
X48307072Y-21420489D01*
X48307068Y-21420491D01*
X48302498Y-21422384D01*
X48086624Y-21554672D01*
X47894102Y-21719102D01*
X47729672Y-21911624D01*
X47597384Y-22127498D01*
X47595491Y-22132068D01*
X47595489Y-22132072D01*
X47553965Y-22232320D01*
X47500495Y-22361409D01*
X47499340Y-22366221D01*
X47451403Y-22565895D01*
X47441391Y-22607597D01*
X47421526Y-22860000D01*
X40483500Y-22860000D01*
X40483500Y-21711866D01*
X40476745Y-21649684D01*
X40425615Y-21513295D01*
X40338261Y-21396739D01*
X40221705Y-21309385D01*
X40085316Y-21258255D01*
X40023134Y-21251500D01*
X37726866Y-21251500D01*
X37664684Y-21258255D01*
X37528295Y-21309385D01*
X37411739Y-21396739D01*
X37324385Y-21513295D01*
X37273255Y-21649684D01*
X37266500Y-21711866D01*
X37266500Y-24008134D01*
X17780000Y-24008134D01*
X17780000Y-15366000D01*
X17800002Y-15297879D01*
X17853658Y-15251386D01*
X17906000Y-15240000D01*
X76074000Y-15240000D01*
X76142121Y-15260002D01*
G37*
%TD.AperFunction*%
%TD*%
M02*
