%TF.GenerationSoftware,KiCad,Pcbnew,(6.0.4)*%
%TF.CreationDate,2022-05-29T18:16:18+05:30*%
%TF.ProjectId,TOUCH ON AND OFF SWTICH CIRCUIT,544f5543-4820-44f4-9e20-414e44204f46,rev?*%
%TF.SameCoordinates,Original*%
%TF.FileFunction,Legend,Top*%
%TF.FilePolarity,Positive*%
%FSLAX46Y46*%
G04 Gerber Fmt 4.6, Leading zero omitted, Abs format (unit mm)*
G04 Created by KiCad (PCBNEW (6.0.4)) date 2022-05-29 18:16:18*
%MOMM*%
%LPD*%
G01*
G04 APERTURE LIST*
%ADD10C,0.150000*%
%ADD11C,0.120000*%
G04 APERTURE END LIST*
D10*
%TO.C,K1*%
X50447380Y-30818095D02*
X49447380Y-30818095D01*
X50447380Y-30246666D02*
X49875952Y-30675238D01*
X49447380Y-30246666D02*
X50018809Y-30818095D01*
X50447380Y-29294285D02*
X50447380Y-29865714D01*
X50447380Y-29580000D02*
X49447380Y-29580000D01*
X49590238Y-29675238D01*
X49685476Y-29770476D01*
X49733095Y-29865714D01*
%TO.C,Q1*%
X38682619Y-35655238D02*
X38635000Y-35750476D01*
X38539761Y-35845714D01*
X38396904Y-35988571D01*
X38349285Y-36083809D01*
X38349285Y-36179047D01*
X38587380Y-36131428D02*
X38539761Y-36226666D01*
X38444523Y-36321904D01*
X38254047Y-36369523D01*
X37920714Y-36369523D01*
X37730238Y-36321904D01*
X37635000Y-36226666D01*
X37587380Y-36131428D01*
X37587380Y-35940952D01*
X37635000Y-35845714D01*
X37730238Y-35750476D01*
X37920714Y-35702857D01*
X38254047Y-35702857D01*
X38444523Y-35750476D01*
X38539761Y-35845714D01*
X38587380Y-35940952D01*
X38587380Y-36131428D01*
X38587380Y-34750476D02*
X38587380Y-35321904D01*
X38587380Y-35036190D02*
X37587380Y-35036190D01*
X37730238Y-35131428D01*
X37825476Y-35226666D01*
X37873095Y-35321904D01*
%TO.C,R3*%
X33628333Y-46792380D02*
X33295000Y-46316190D01*
X33056904Y-46792380D02*
X33056904Y-45792380D01*
X33437857Y-45792380D01*
X33533095Y-45840000D01*
X33580714Y-45887619D01*
X33628333Y-45982857D01*
X33628333Y-46125714D01*
X33580714Y-46220952D01*
X33533095Y-46268571D01*
X33437857Y-46316190D01*
X33056904Y-46316190D01*
X33961666Y-45792380D02*
X34580714Y-45792380D01*
X34247380Y-46173333D01*
X34390238Y-46173333D01*
X34485476Y-46220952D01*
X34533095Y-46268571D01*
X34580714Y-46363809D01*
X34580714Y-46601904D01*
X34533095Y-46697142D01*
X34485476Y-46744761D01*
X34390238Y-46792380D01*
X34104523Y-46792380D01*
X34009285Y-46744761D01*
X33961666Y-46697142D01*
%TO.C,R1*%
X38708333Y-26472380D02*
X38375000Y-25996190D01*
X38136904Y-26472380D02*
X38136904Y-25472380D01*
X38517857Y-25472380D01*
X38613095Y-25520000D01*
X38660714Y-25567619D01*
X38708333Y-25662857D01*
X38708333Y-25805714D01*
X38660714Y-25900952D01*
X38613095Y-25948571D01*
X38517857Y-25996190D01*
X38136904Y-25996190D01*
X39660714Y-26472380D02*
X39089285Y-26472380D01*
X39375000Y-26472380D02*
X39375000Y-25472380D01*
X39279761Y-25615238D01*
X39184523Y-25710476D01*
X39089285Y-25758095D01*
%TO.C,L1*%
X67912380Y-44616666D02*
X67912380Y-45092857D01*
X66912380Y-45092857D01*
X67912380Y-43759523D02*
X67912380Y-44330952D01*
X67912380Y-44045238D02*
X66912380Y-44045238D01*
X67055238Y-44140476D01*
X67150476Y-44235714D01*
X67198095Y-44330952D01*
%TO.C,SW1*%
X44386666Y-49234761D02*
X44529523Y-49282380D01*
X44767619Y-49282380D01*
X44862857Y-49234761D01*
X44910476Y-49187142D01*
X44958095Y-49091904D01*
X44958095Y-48996666D01*
X44910476Y-48901428D01*
X44862857Y-48853809D01*
X44767619Y-48806190D01*
X44577142Y-48758571D01*
X44481904Y-48710952D01*
X44434285Y-48663333D01*
X44386666Y-48568095D01*
X44386666Y-48472857D01*
X44434285Y-48377619D01*
X44481904Y-48330000D01*
X44577142Y-48282380D01*
X44815238Y-48282380D01*
X44958095Y-48330000D01*
X45291428Y-48282380D02*
X45529523Y-49282380D01*
X45720000Y-48568095D01*
X45910476Y-49282380D01*
X46148571Y-48282380D01*
X47053333Y-49282380D02*
X46481904Y-49282380D01*
X46767619Y-49282380D02*
X46767619Y-48282380D01*
X46672380Y-48425238D01*
X46577142Y-48520476D01*
X46481904Y-48568095D01*
%TO.C,D1*%
X43216904Y-20842380D02*
X43216904Y-19842380D01*
X43455000Y-19842380D01*
X43597857Y-19890000D01*
X43693095Y-19985238D01*
X43740714Y-20080476D01*
X43788333Y-20270952D01*
X43788333Y-20413809D01*
X43740714Y-20604285D01*
X43693095Y-20699523D01*
X43597857Y-20794761D01*
X43455000Y-20842380D01*
X43216904Y-20842380D01*
X44740714Y-20842380D02*
X44169285Y-20842380D01*
X44455000Y-20842380D02*
X44455000Y-19842380D01*
X44359761Y-19985238D01*
X44264523Y-20080476D01*
X44169285Y-20128095D01*
X38613095Y-21212380D02*
X38613095Y-20212380D01*
X39184523Y-21212380D02*
X38755952Y-20640952D01*
X39184523Y-20212380D02*
X38613095Y-20783809D01*
%TO.C,SW2*%
X28549761Y-29273333D02*
X28597380Y-29130476D01*
X28597380Y-28892380D01*
X28549761Y-28797142D01*
X28502142Y-28749523D01*
X28406904Y-28701904D01*
X28311666Y-28701904D01*
X28216428Y-28749523D01*
X28168809Y-28797142D01*
X28121190Y-28892380D01*
X28073571Y-29082857D01*
X28025952Y-29178095D01*
X27978333Y-29225714D01*
X27883095Y-29273333D01*
X27787857Y-29273333D01*
X27692619Y-29225714D01*
X27645000Y-29178095D01*
X27597380Y-29082857D01*
X27597380Y-28844761D01*
X27645000Y-28701904D01*
X27597380Y-28368571D02*
X28597380Y-28130476D01*
X27883095Y-27940000D01*
X28597380Y-27749523D01*
X27597380Y-27511428D01*
X27692619Y-27178095D02*
X27645000Y-27130476D01*
X27597380Y-27035238D01*
X27597380Y-26797142D01*
X27645000Y-26701904D01*
X27692619Y-26654285D01*
X27787857Y-26606666D01*
X27883095Y-26606666D01*
X28025952Y-26654285D01*
X28597380Y-27225714D01*
X28597380Y-26606666D01*
%TO.C,R2*%
X55713333Y-46792380D02*
X55380000Y-46316190D01*
X55141904Y-46792380D02*
X55141904Y-45792380D01*
X55522857Y-45792380D01*
X55618095Y-45840000D01*
X55665714Y-45887619D01*
X55713333Y-45982857D01*
X55713333Y-46125714D01*
X55665714Y-46220952D01*
X55618095Y-46268571D01*
X55522857Y-46316190D01*
X55141904Y-46316190D01*
X56094285Y-45887619D02*
X56141904Y-45840000D01*
X56237142Y-45792380D01*
X56475238Y-45792380D01*
X56570476Y-45840000D01*
X56618095Y-45887619D01*
X56665714Y-45982857D01*
X56665714Y-46078095D01*
X56618095Y-46220952D01*
X56046666Y-46792380D01*
X56665714Y-46792380D01*
%TO.C,U1*%
X36647380Y-38861904D02*
X37456904Y-38861904D01*
X37552142Y-38814285D01*
X37599761Y-38766666D01*
X37647380Y-38671428D01*
X37647380Y-38480952D01*
X37599761Y-38385714D01*
X37552142Y-38338095D01*
X37456904Y-38290476D01*
X36647380Y-38290476D01*
X37647380Y-37290476D02*
X37647380Y-37861904D01*
X37647380Y-37576190D02*
X36647380Y-37576190D01*
X36790238Y-37671428D01*
X36885476Y-37766666D01*
X36933095Y-37861904D01*
D11*
%TO.C,K1*%
X57345000Y-28030000D02*
X53145000Y-28030000D01*
X59145000Y-24630000D02*
X55545000Y-24630000D01*
X66995000Y-40380000D02*
X51395000Y-40380000D01*
X57995000Y-20580000D02*
X51395000Y-20580000D01*
X57345000Y-26030000D02*
X60945000Y-26030000D01*
X59145000Y-31430000D02*
X59145000Y-32930000D01*
X51395000Y-40380000D02*
X51395000Y-20580000D01*
X53145000Y-25530000D02*
X53145000Y-28030000D01*
X59145000Y-31430000D02*
X55545000Y-31430000D01*
X57345000Y-30030000D02*
X60945000Y-26030000D01*
X59145000Y-32930000D02*
X61645000Y-37530000D01*
X59145000Y-24630000D02*
X59145000Y-23830000D01*
X55545000Y-31430000D02*
X55545000Y-24630000D01*
X66995000Y-20580000D02*
X66995000Y-40380000D01*
X63395000Y-36130000D02*
X60895000Y-36130000D01*
X65145000Y-28030000D02*
X60945000Y-28030000D01*
X66995000Y-20580000D02*
X60395000Y-20580000D01*
X60945000Y-30030000D02*
X57345000Y-30030000D01*
X60945000Y-26030000D02*
X60945000Y-30030000D01*
X57345000Y-30030000D02*
X57345000Y-26030000D01*
X65145000Y-28030000D02*
X65145000Y-25530000D01*
%TO.C,Q1*%
X39289144Y-39448039D02*
X40066961Y-40225856D01*
X40066961Y-40225856D02*
X40957916Y-39334902D01*
X40180098Y-38557084D02*
X39289144Y-39448039D01*
X40957629Y-39334674D02*
G75*
G03*
X40180098Y-38557084I2997371J3774674D01*
G01*
%TO.C,R3*%
X31875000Y-47340000D02*
X35715000Y-47340000D01*
X31875000Y-49180000D02*
X35715000Y-49180000D01*
%TO.C,R1*%
X36955000Y-28860000D02*
X40795000Y-28860000D01*
X36955000Y-27020000D02*
X40795000Y-27020000D01*
%TO.C,L1*%
X65045000Y-41890000D02*
X61955000Y-41890000D01*
X63499538Y-47440000D02*
G75*
G03*
X65044830Y-41890000I462J2990000D01*
G01*
X61955170Y-41890000D02*
G75*
G03*
X63500462Y-47440000I1544830J-2560000D01*
G01*
X66000000Y-44450000D02*
G75*
G03*
X66000000Y-44450000I-2500000J0D01*
G01*
%TO.C,SW1*%
X49130000Y-43610000D02*
X42310000Y-43610000D01*
X47530000Y-45395000D02*
X46323333Y-45395000D01*
X49370000Y-48070000D02*
X49370000Y-46687000D01*
X43910000Y-45085000D02*
X43910000Y-46355000D01*
X47530000Y-46355000D02*
X47530000Y-45085000D01*
X47530000Y-46115000D02*
X46323333Y-46115000D01*
X47530000Y-45995000D02*
X46323333Y-45995000D01*
X47530000Y-45515000D02*
X46323333Y-45515000D01*
X49130000Y-44920000D02*
X49130000Y-43610000D01*
X42310000Y-47830000D02*
X42310000Y-46520000D01*
X42310000Y-44920000D02*
X42310000Y-43610000D01*
X47530000Y-46235000D02*
X46323333Y-46235000D01*
X47530000Y-45755000D02*
X46323333Y-45755000D01*
X49370000Y-48070000D02*
X47987000Y-48070000D01*
X49130000Y-47830000D02*
X49130000Y-46520000D01*
X47530000Y-45155000D02*
X46323333Y-45155000D01*
X47530000Y-45875000D02*
X46323333Y-45875000D01*
X49130000Y-47830000D02*
X42310000Y-47830000D01*
X47530000Y-45635000D02*
X46323333Y-45635000D01*
X43910000Y-46355000D02*
X47530000Y-46355000D01*
X47530000Y-45085000D02*
X43910000Y-45085000D01*
X46323333Y-46355000D02*
X46323333Y-45085000D01*
X47530000Y-45275000D02*
X46323333Y-45275000D01*
%TO.C,D1*%
X42255000Y-21390000D02*
X42255000Y-24330000D01*
X42015000Y-21390000D02*
X42015000Y-24330000D01*
X46675000Y-24330000D02*
X46675000Y-21390000D01*
X41235000Y-24330000D02*
X46675000Y-24330000D01*
X42135000Y-21390000D02*
X42135000Y-24330000D01*
X40215000Y-22860000D02*
X41235000Y-22860000D01*
X41235000Y-21390000D02*
X41235000Y-24330000D01*
X46675000Y-21390000D02*
X41235000Y-21390000D01*
X47695000Y-22860000D02*
X46675000Y-22860000D01*
%TO.C,SW2*%
X31460000Y-29750000D02*
X31460000Y-28543333D01*
X31890000Y-29750000D02*
X31890000Y-26130000D01*
X30620000Y-28543333D02*
X31890000Y-28543333D01*
X31890000Y-26130000D02*
X30620000Y-26130000D01*
X30740000Y-29750000D02*
X30740000Y-28543333D01*
X28905000Y-31590000D02*
X30288000Y-31590000D01*
X29145000Y-31350000D02*
X30455000Y-31350000D01*
X30860000Y-29750000D02*
X30860000Y-28543333D01*
X33365000Y-31350000D02*
X33365000Y-24530000D01*
X30620000Y-29750000D02*
X31890000Y-29750000D01*
X31340000Y-29750000D02*
X31340000Y-28543333D01*
X32055000Y-24530000D02*
X33365000Y-24530000D01*
X31100000Y-29750000D02*
X31100000Y-28543333D01*
X29145000Y-31350000D02*
X29145000Y-24530000D01*
X32055000Y-31350000D02*
X33365000Y-31350000D01*
X30980000Y-29750000D02*
X30980000Y-28543333D01*
X30620000Y-26130000D02*
X30620000Y-29750000D01*
X31820000Y-29750000D02*
X31820000Y-28543333D01*
X28905000Y-31590000D02*
X28905000Y-30207000D01*
X31580000Y-29750000D02*
X31580000Y-28543333D01*
X29145000Y-24530000D02*
X30455000Y-24530000D01*
X31220000Y-29750000D02*
X31220000Y-28543333D01*
X31700000Y-29750000D02*
X31700000Y-28543333D01*
%TO.C,R2*%
X53960000Y-47340000D02*
X57800000Y-47340000D01*
X53960000Y-49180000D02*
X57800000Y-49180000D01*
%TO.C,U1*%
X31235000Y-38100000D02*
X31235000Y-40050000D01*
X36355000Y-38100000D02*
X36355000Y-40050000D01*
X36355000Y-38100000D02*
X36355000Y-34650000D01*
X31235000Y-38100000D02*
X31235000Y-36150000D01*
%TD*%
M02*
